<svg xmlns="http://www.w3.org/2000/svg" viewBox="0 0 254 254" height="960" width="960"><g stroke="#000"><path d="M165.58 177.475c-2.954 10.564 8.803 38.354 29.406 39.272 1.63-13.89-2.473-25.249-6.137-33.245 7.014.667 22.434 6.141 32.919-.582-1.475-16.312-32.93-24.608-41.764-22.564M88.017 142.962c-.473 3.084-7.52 12.517-3.918 13.736 3.434 1.954 12.303 3.203 15.392 2.74 3.55-.1 3.344-4.722 3.43-6.418M124.418 75.695c7.812-1.573 18.428-11.12 29.654 3.62 6.168 9.015 16.511 23.823 9.905 39.971M139.976 172.168c-.284 1.953-.73 3.386-.082 4.826 1.202 2.1 5.95 3.978 9.058 2.72 1.274-.924 1.22-2.654 1.472-3.983" fill="#fff" stroke-width="3.5"/><path d="M56.355 48.921c30.051-3.113 68.817 25.71 80.544 36.708 12.534 11.113 53.292 62.486 40.683 86.52-17.285 18.705-75.514-17.593-96.31-34.553-9.427-8.354-40.417-37.129-36.017-74.909-.641-5.84 10.615.078 12.385-2.575 1.7-3.348-6.646-11.38-1.285-11.191z" fill="#fff" stroke-width="3.5"/><path d="M82.887 113.767c-1.049 8.154 7.522 14.254 11.372 15.843 3.653 1.54 8.708 2.083 9.703-4.913 1.223-6.3-5.278-17.459-11.946-18.114-2.671-.134-8.223 3.15-9.129 7.184zM97.585 59.231c3.087 49.605-44.055 43.358-44.055 43.358l-.787-.199" fill="#fff" stroke-width="3.5"/><circle r="5.577" cy="65.731" cx="74.195" opacity=".986" fill="#fff" stroke-width="2"/><circle r="1.158" cy="63.755" cx="75.094" opacity=".992" stroke-width=".836"/></g></svg>